<svg xmlns="http://www.w3.org/2000/svg" width="202" height="35" fill="none" viewBox="0 0 202 35"><path fill="#5061fc" d="M62.384 27.082q-3.477 0-5.972-1.194-2.493-1.23-4.074-3.197-1.58-2.002-2.354-4.285-.737-2.318-.737-4.496v-.773q0-2.388.773-4.707a12.8 12.8 0 0 1 2.353-4.25q1.616-1.897 4.04-3.02Q58.87 0 62.207 0q3.479 0 6.147 1.3 2.67 1.299 4.25 3.618 1.617 2.283 1.897 5.374h-5.796q-.245-1.546-1.124-2.635-.877-1.089-2.283-1.686-1.37-.597-3.09-.597-1.722 0-3.057.597a6.2 6.2 0 0 0-2.248 1.686q-.878 1.09-1.37 2.6-.456 1.475-.456 3.302 0 1.79.456 3.301a8.2 8.2 0 0 0 1.405 2.6 6.44 6.44 0 0 0 2.319 1.686q1.37.561 3.126.562 2.67 0 4.496-1.3 1.861-1.299 2.248-3.583h5.76a11.4 11.4 0 0 1-1.896 5.164q-1.545 2.318-4.25 3.723-2.67 1.37-6.358 1.37M86.017 27.082q-2.53 0-4.496-.773-1.968-.807-3.338-2.178a9.5 9.5 0 0 1-2.037-3.126 10.2 10.2 0 0 1-.702-3.758v-.808q0-2.003.702-3.794a9.5 9.5 0 0 1 2.108-3.196q1.404-1.37 3.372-2.143 1.967-.807 4.39-.808 2.494 0 4.426.808 1.968.773 3.337 2.143a9.5 9.5 0 0 1 2.108 3.196 9.9 9.9 0 0 1 .737 3.794v.808q0 1.967-.702 3.758a9.2 9.2 0 0 1-2.072 3.126q-1.335 1.371-3.302 2.178-1.968.773-4.531.773m0-4.742q1.65 0 2.74-.703 1.088-.702 1.65-1.967.597-1.265.597-2.81 0-1.65-.597-2.88a4.8 4.8 0 0 0-1.72-2.002q-1.09-.738-2.67-.738-1.545 0-2.67.738a4.8 4.8 0 0 0-1.721 2.002q-.562 1.23-.562 2.88 0 1.545.562 2.81.561 1.265 1.686 1.967t2.705.703M98.79 26.415V7.165h4.461v8.255h-.316q0-2.95.738-4.917.773-1.967 2.318-2.951 1.546-.983 3.759-.983h.246q3.372 0 5.128 2.212 1.791 2.178 1.791 6.64v10.994h-5.62v-11.31q0-1.546-.913-2.53t-2.459-.983q-1.58 0-2.564 1.018-.948.983-.948 2.6v11.205zM128.695 26.66q-2.916 0-4.707-.702-1.792-.738-2.635-2.424-.807-1.721-.808-4.636V1.967h5.234v17.141q0 1.37.703 2.108.737.702 2.072.702h2.845v4.742zM117.63 11.275v-4.11h13.769v4.11zM144.98 26.415v-5.69h-.948v-6.183q0-1.475-.703-2.213-.702-.738-2.248-.738-.773 0-2.037.036-1.264.034-2.599.105t-2.424.14V7.132a87 87 0 0 1 1.897-.141 72.146 72.146 0 0 1 4.426-.14q2.95 0 4.952.843 2.038.842 3.091 2.564 1.054 1.686 1.054 4.355v11.803zm-6.147.491q-2.072 0-3.653-.737-1.545-.738-2.423-2.108-.879-1.405-.879-3.337 0-2.107 1.089-3.442 1.09-1.37 3.056-2.002 1.968-.668 4.531-.668h4.11v3.126h-4.145q-1.474 0-2.283.738-.773.703-.773 1.932 0 1.16.773 1.897.809.702 2.283.702.95 0 1.686-.316.773-.35 1.265-1.159.492-.808.562-2.248l1.335 1.405q-.175 2.003-.984 3.372a5.25 5.25 0 0 1-2.178 2.108q-1.37.737-3.372.737M161.094 27.082q-2.493 0-4.355-.808-1.827-.843-3.056-2.248a9.3 9.3 0 0 1-1.827-3.161 11.6 11.6 0 0 1-.597-3.688v-.668q0-1.967.632-3.758a9.7 9.7 0 0 1 1.862-3.232q1.23-1.405 3.056-2.213 1.862-.807 4.25-.808 2.6 0 4.602 1.019 2.002.983 3.196 2.775t1.335 4.11h-5.515q-.14-1.3-1.054-2.178-.878-.915-2.564-.914-1.405 0-2.353.703-.914.702-1.37 1.932t-.457 2.915q0 1.545.422 2.81.422 1.23 1.334 1.932.949.668 2.459.668 1.125 0 1.897-.387.808-.42 1.264-1.124a3.74 3.74 0 0 0 .598-1.686h5.479q-.105 2.39-1.335 4.215-1.229 1.792-3.266 2.81-2.037.984-4.637.984M180.917 26.66q-2.916 0-4.707-.702-1.792-.738-2.635-2.424-.808-1.721-.808-4.636V1.967h5.234v17.141q0 1.37.703 2.108.737.702 2.072.702h2.845v4.742zm-11.065-15.385v-4.11h13.769v4.11zM192.813 27.012q-4.11 0-6.428-1.686t-2.459-4.742h4.988q.141.913 1.089 1.65.984.703 2.916.703 1.475 0 2.423-.492.984-.526.984-1.475 0-.843-.738-1.335-.738-.527-2.634-.737l-1.511-.14q-3.477-.352-5.233-1.933-1.722-1.58-1.722-4.04 0-2.036 1.019-3.406t2.81-2.073q1.827-.702 4.145-.702 3.723 0 6.006 1.65 2.284 1.617 2.389 4.707h-4.988q-.14-.948-.983-1.58-.843-.668-2.494-.668-1.3 0-2.073.492t-.772 1.335q0 .808.667 1.23t2.178.596l1.51.14q3.548.387 5.515 1.968t1.967 4.25q0 1.932-1.054 3.372-1.054 1.406-2.986 2.178-1.931.738-4.531.738"/><path fill="#222" d="M0 26.415V.773h7.938l5.866 14.401h.668L20.267.773h8.08v25.642h-5.69V4.53l.807.07-6.78 16.615h-5.479L4.391 4.6l.878-.07v21.883zM31.814 34.037V29.26h4.004q.914 0 1.545-.246.633-.21 1.019-.738.387-.527.632-1.44l4.742-19.67h5.34L43.72 27.96q-.562 2.248-1.58 3.583-.984 1.335-2.67 1.897-1.65.597-4.215.597zm6.041-8.044v-4.39h4.075v4.39zm-2.318 0L29.636 7.166h5.655l5.585 18.827z"/></svg>